<?xml version="1.0" encoding="UTF-8" standalone="no"?>
<!-- Created with Inkscape (http://www.inkscape.org/) -->

<svg
   version="1.1"
   id="svg1"
   width="800"
   height="533"
   viewBox="0 0 800 533"
   xml:space="preserve"
   xmlns="http://www.w3.org/2000/svg"
   xmlns:svg="http://www.w3.org/2000/svg"><defs
     id="defs1" /><g
     id="layer1"
     transform="translate(177.47374,1499.7506)"><path
       style="fill:#000000;stroke:none;stroke-width:0.672283;stroke-dasharray:none;stroke-opacity:1"
       d="m -122.4182,-1195.0336 c -8.438,-0.1097 -15.3419,-0.4415 -15.3419,-0.7373 0,-0.2958 -1.0118,-0.9037 -2.2484,-1.3508 -1.4335,-0.5184 -2.7456,-1.7362 -3.62,-3.3599 -1.3237,-2.458 -1.3715,-3.9326 -1.3715,-42.302 0,-38.4005 0.047,-39.8469 1.379,-42.4407 1.8872,-3.6748 3.1183,-4.9419 5.3438,-5.4999 1.0429,-0.2615 1.8962,-0.7521 1.8962,-1.0902 0,-0.354 19.7466,-0.6148 46.5427,-0.6148 h 46.54267 v 6.2057 6.2057 H -87.317 -131.3385 l -0.4504,10.86 c -0.2477,5.9729 -0.4514,22.5732 -0.4527,36.8894 v 26.0294 h 13.7904 13.7905 v 5.8609 c 0,5.1826 -0.1397,5.8426 -1.2067,5.7024 -0.6637,-0.087 -8.1105,-0.2482 -16.5485,-0.3579 z"
       id="path11-7" /><path
       style="fill:#000000;stroke:none;stroke-width:0.672283;stroke-dasharray:none;stroke-opacity:1"
       d="m 5.488,-1257.7389 c -1.13332,-0.2962 -1.20666,-2.9934 -1.20666,-44.3789 v -44.0636 l -27.75324,-0.3421 c -15.26427,-0.1881 -31.7869,-0.4277 -36.717,-0.5324 l -8.9638,-0.1902 -0.1866,13.9628 -0.1867,13.9628 h -5.9084 -5.9084 l 0.2341,-17.0657 0.2342,-17.0656 2.5364,-2.5942 c 1.9373,-1.9814 3.3849,-2.7551 6.1275,-3.2753 4.8413,-0.9181 73.08384,-0.8989 77.94925,0.022 2.04275,0.3867 3.81753,1.0072 3.94394,1.3791 0.12641,0.3718 0.65633,0.676 1.1776,0.676 1.17804,0 4.45349,5.4663 4.45349,7.4323 0,0.7976 0.31028,1.6419 0.68952,1.8763 0.44831,0.2771 0.68952,16.2109 0.68952,45.5491 v 45.123 l -4.99903,-0.08 c -2.74946,-0.044 -5.54203,-0.2218 -6.20569,-0.3953 z"
       id="path12-7" /><path
       style="fill:#000000;stroke:none;stroke-width:0.672283;stroke-dasharray:none;stroke-opacity:1"
       d="m -24.40323,-1196.2409 0.82838,-6.2057 0.4142,-3.1029 h 43.6945 43.69451 l 0.36215,-19.479 c 0.19918,-10.7134 0.52915,-27.3136 0.73327,-36.8894 l 0.37112,-17.4104 H 51.53663 37.37836 v -5.9694 -5.9695 l 11.89425,0.4512 c 6.54183,0.2481 14.25995,0.4521 17.15136,0.4533 5.00278,0 5.3794,0.1141 7.78451,2.3171 1.70131,1.5583 2.6606,3.1359 2.93497,4.8266 0.22417,1.3814 0.67728,2.5117 1.00689,2.5117 0.78269,0 0.78538,74.9614 0.003,75.4451 -0.32813,0.2028 -0.77144,1.4462 -0.98515,2.7632 -0.48182,2.9691 -4.10798,7.0694 -6.76868,7.6538 -1.09582,0.2407 -1.99241,0.7233 -1.99241,1.0724 0,0.3803 -18.67921,0.6347 -46.61212,0.6347 h -46.61212 z"
       id="path13-9" /><path
       style="fill:#000000;stroke:none;stroke-width:0.672283;stroke-dasharray:none;stroke-opacity:1"
       d="m -71.1885,-1133.7862 c -0.2163,-0.3501 -1.3199,-0.84 -2.4524,-1.0888 -1.2796,-0.281 -3.0387,-1.6474 -4.6464,-3.6092 l -2.5872,-3.157 -0.191,-46.7789 -0.1909,-46.7788 h 5.8744 5.8744 l 0.1775,44.3017 0.1774,44.3018 36.71703,0.1784 36.71701,0.1784 v -14.1412 -14.1412 h 6.24301 6.243 l -0.3507,9.1361 c -0.19289,5.0249 -0.59753,13.0602 -0.89922,17.8563 -0.61265,9.7397 -1.03526,10.6578 -6.01345,13.063 -2.58093,1.2469 -4.7552,1.3159 -41.51133,1.3159 -22.95945,0 -38.94825,-0.2598 -39.18115,-0.6365 z"
       id="path14-3" /><path
       style="fill:#000000;stroke:none;stroke-width:0.672283;stroke-dasharray:none;stroke-opacity:1"
       d="m 144.59893,-1187.36 c -5.89267,-0.4334 -14.44687,-1.7373 -15.16947,-2.3122 -0.37923,-0.3017 -1.76533,-0.779 -3.08021,-1.0606 -1.31488,-0.2817 -2.86631,-0.781 -3.44761,-1.1097 -0.5813,-0.3286 -2.60834,-1.183 -4.50452,-1.8985 l -3.44761,-1.301 -0.19496,-7.6671 c -0.10723,-4.2169 -0.0265,-7.667 0.17945,-7.667 0.20593,0 1.91948,1.086 3.80788,2.4133 1.88841,1.3273 3.74693,2.4133 4.13006,2.4133 0.38312,0 0.69659,0.2856 0.69659,0.6347 0,0.3491 0.93085,0.8392 2.06856,1.0891 1.13772,0.2499 2.06857,0.7153 2.06857,1.0343 0,0.319 1.00842,0.7987 2.24094,1.0661 1.23252,0.2674 2.40806,0.7472 2.61231,1.0663 0.20425,0.319 2.68652,0.9334 5.51617,1.3653 2.82964,0.4318 5.6836,1.0626 6.34212,1.4018 1.5353,0.7907 15.00644,0.8106 15.00644,0.022 0,-0.327 1.76254,-0.8017 3.91676,-1.0549 4.26029,-0.5007 7.4021,-2.1306 10.9542,-5.6827 3.75165,-3.7517 4.79276,-6.6948 4.69103,-13.2615 -0.0491,-3.1729 -0.36575,-5.9654 -0.70355,-6.2056 -0.33781,-0.2403 -0.99305,-1.2988 -1.45609,-2.3523 -0.46305,-1.0536 -1.38759,-2.1162 -2.05453,-2.3614 -0.66695,-0.2452 -1.46076,-0.857 -1.76404,-1.3597 -0.30327,-0.5026 -1.00141,-0.9139 -1.55142,-0.9139 -0.55001,0 -1.00002,-0.2912 -1.00002,-0.6472 0,-0.356 -1.39628,-0.8567 -3.10284,-1.1126 -1.70657,-0.2559 -3.10285,-0.7099 -3.10285,-1.0088 0,-0.299 -1.93928,-0.7637 -4.30951,-1.0328 -2.37023,-0.2691 -4.61979,-0.7227 -4.99903,-1.008 -0.37923,-0.2853 -2.55123,-0.7141 -4.82665,-0.9529 -4.09521,-0.4297 -16.22836,-3.2237 -16.89327,-3.8902 -0.18962,-0.19 -1.56601,-0.9661 -3.05864,-1.7246 -6.86627,-3.489 -12.41429,-9.8428 -13.28621,-15.2158 -0.21126,-1.3018 -0.65379,-2.367 -0.9834,-2.367 -0.32962,0 -0.59931,-2.9477 -0.59931,-6.5504 0,-3.9073 0.27823,-6.5505 0.68953,-6.5505 0.37923,0 0.68952,-0.7029 0.68952,-1.562 0,-0.8592 0.7244,-2.9165 1.60978,-4.5718 1.74587,-3.2641 8.17679,-10.1698 10.4359,-11.2063 0.76999,-0.3533 3.10655,-1.5556 5.19235,-2.6719 2.0858,-1.1162 4.61979,-2.0347 5.63109,-2.0411 1.0113,-0.01 1.96742,-0.3976 2.12472,-0.8695 0.36875,-1.1063 24.08636,-1.1443 25.46791,-0.041 0.49917,0.3987 2.45901,0.9482 4.35519,1.2211 1.89619,0.273 3.7579,0.7417 4.13713,1.0417 0.37924,0.2999 1.76534,0.7758 3.08022,1.0574 1.31488,0.2816 2.8663,0.757 3.4476,1.0564 0.58131,0.2994 2.06534,0.9181 3.29786,1.375 l 2.24095,0.8307 v 7.1563 c 0,4.3112 -0.27414,7.1563 -0.68953,7.1563 -0.37923,0 -0.6906,-0.2327 -0.69193,-0.5171 -0.001,-0.2844 -1.78546,-1.448 -3.96475,-2.5857 -2.17928,-1.1377 -4.11747,-2.2623 -4.30709,-2.4991 -0.18962,-0.2368 -1.35319,-0.6493 -2.58571,-0.9167 -1.23252,-0.2674 -2.24094,-0.7445 -2.24094,-1.0603 0,-0.3157 -1.31871,-0.7916 -2.93047,-1.0574 -1.61175,-0.2659 -3.3657,-0.8361 -3.89766,-1.2673 -1.41678,-1.1483 -24.52316,-1.0782 -25.68132,0.078 -0.47486,0.474 -1.35912,0.8619 -1.96502,0.8619 -1.2921,0 -8.22582,4.8769 -8.25555,5.8066 -0.0112,0.3494 -0.5633,1.2353 -1.22697,1.9686 -1.76776,1.9534 -1.76776,14.9037 0,16.8571 0.66367,0.7333 1.20666,1.5638 1.20666,1.8454 0,0.7806 1.87187,2.4822 2.73048,2.4822 0.41823,0 0.93174,0.4465 1.14113,0.9921 0.2094,0.5457 1.36323,1.2021 2.56407,1.4587 1.20084,0.2566 2.49363,0.7103 2.87286,1.0083 0.70791,0.5563 4.5039,1.3044 16.54851,3.2612 3.79237,0.6161 7.05036,1.3258 7.23998,1.5772 0.18962,0.2513 1.72565,0.6728 3.4134,0.9366 1.68775,0.2638 3.39431,0.7336 3.79236,1.0439 0.39805,0.3103 1.58537,0.7701 2.63848,1.0218 4.76895,1.1398 13.58081,8.1055 14.6708,11.5971 0.27148,0.8696 0.77026,1.7596 1.10841,1.9778 0.33814,0.2182 0.80497,2.0024 1.03739,3.9648 0.23242,1.9624 0.68964,3.568 1.01606,3.568 0.32641,0 0.59347,1.7066 0.59347,3.7924 0,2.0858 -0.27031,3.7923 -0.60069,3.7923 -0.33037,0 -0.80649,1.5515 -1.05803,3.4476 -0.25153,1.8962 -0.73228,3.4477 -1.06833,3.4477 -0.33603,0 -0.81543,0.9308 -1.06531,2.0685 -0.24989,1.1377 -0.73997,2.0686 -1.08907,2.0686 -0.3491,0 -0.63474,0.4655 -0.63474,1.0344 0,1.3989 -6.69967,7.9459 -9.86236,9.6376 -1.40196,0.7499 -2.54902,1.6032 -2.54902,1.8962 0,0.293 -0.38786,0.5346 -0.8619,0.5369 -0.47405,0 -1.72925,0.4567 -2.78935,1.0096 -3.64218,1.8998 -17.16068,3.3203 -25.65341,2.6957 z"
       id="path15-1" /><path
       style="fill:#000000;stroke:none;stroke-width:0.672283;stroke-dasharray:none;stroke-opacity:1"
       d="m 203.13252,-1190.2076 c 0.2364,-1.0429 0.62345,-2.9047 0.86013,-4.1372 0.23667,-1.2325 0.67273,-2.2409 0.96901,-2.2409 0.29628,0 0.74811,-1.2395 1.00406,-2.7545 0.25595,-1.5149 0.72165,-2.9128 1.03489,-3.1064 0.31324,-0.1936 0.77895,-1.5915 1.0349,-3.1065 0.25595,-1.515 0.72936,-2.7545 1.05203,-2.7545 0.32266,0 0.79605,-1.3963 1.05196,-3.1028 0.25592,-1.7066 0.69796,-3.1029 0.98231,-3.1029 0.28436,0 0.9121,-1.8617 1.39497,-4.1371 0.48288,-2.2754 1.11858,-4.1371 1.41266,-4.1371 0.29408,0 0.74411,-1.2395 1.00006,-2.7545 0.25595,-1.515 0.72165,-2.9129 1.03489,-3.1064 0.31324,-0.1936 0.77894,-1.5915 1.03489,-3.1065 0.25595,-1.515 0.72111,-2.7545 1.03368,-2.7545 0.31256,0 0.77772,-1.2395 1.03367,-2.7545 0.25595,-1.5149 0.71347,-2.9078 1.01672,-3.0952 0.30325,-0.1874 0.76944,-1.5077 1.03599,-2.9341 0.26654,-1.4263 0.72651,-2.9036 1.02215,-3.2828 0.29563,-0.3792 0.91961,-2.3195 1.38662,-4.3116 0.46701,-1.9922 1.10121,-3.778 1.40935,-3.9684 0.30813,-0.1904 0.76965,-1.5858 1.0256,-3.1007 0.25595,-1.515 0.7211,-2.7545 1.03367,-2.7545 0.31257,0 0.77772,-1.2395 1.03367,-2.7545 0.25595,-1.5149 0.71348,-2.9078 1.01673,-3.0952 0.30324,-0.1874 0.75327,-1.4171 1.00006,-2.7326 0.24679,-1.3155 0.90062,-3.2582 1.45296,-4.3171 0.55234,-1.0589 1.00808,-2.5459 1.01275,-3.3043 0.005,-0.7585 0.47491,-2.2734 1.04497,-3.3665 0.57006,-1.0931 1.22838,-3.1875 1.46292,-4.6543 0.23455,-1.4667 0.66344,-2.6668 0.9531,-2.6668 0.28965,0 0.73278,-0.8533 0.98472,-1.8962 0.25195,-1.0429 0.82675,-2.7495 1.27735,-3.7924 l 0.81928,-1.8962 h 7.93761 7.93762 l 0.81927,1.8962 c 0.4506,1.0429 1.03455,2.8271 1.29768,3.9648 0.26312,1.1377 0.71814,2.3788 1.01115,2.7581 0.29301,0.3792 0.75018,1.853 1.01594,3.2752 0.26576,1.4221 0.72442,2.5857 1.01925,2.5857 0.29482,0 0.75348,1.1636 1.01924,2.5857 0.26576,1.4221 0.71827,2.896 1.00557,3.2752 0.2873,0.3792 1.36313,3.4821 2.39073,6.8952 1.02761,3.4132 2.13983,6.7105 2.47161,7.3275 0.33179,0.617 0.81414,2.246 1.07191,3.62 0.25777,1.374 0.71715,2.4982 1.02084,2.4982 0.3037,0 0.7616,1.2395 1.01755,2.7545 0.25595,1.5149 0.74865,2.9295 1.09488,3.1435 0.34625,0.214 0.63144,0.9138 0.63378,1.555 0.002,0.6413 0.44259,2.0062 0.97834,3.0332 0.53575,1.0269 1.35892,3.5868 1.82928,5.6885 0.47035,2.1018 1.08086,3.8214 1.35669,3.8214 0.27583,0 0.71089,1.3963 0.96681,3.1029 0.25591,1.7065 0.7293,3.1028 1.05197,3.1028 0.32266,0 0.79607,1.2395 1.05202,2.7545 0.25596,1.5149 0.72165,2.9128 1.0349,3.1064 0.31324,0.1936 0.77893,1.5915 1.03489,3.1065 0.25595,1.515 0.74837,2.7545 1.09428,2.7545 0.3459,0 0.62891,0.5579 0.62891,1.2398 0,1.2084 3.4122,11.5155 4.27079,12.9006 0.23687,0.3821 0.64851,1.856 0.91476,3.2752 0.26626,1.4193 0.72462,2.5805 1.01859,2.5805 0.29397,0 0.74388,1.3963 0.99979,3.1028 0.25592,1.7066 0.75657,3.1029 1.11257,3.1029 0.356,0 0.64728,0.4654 0.64728,1.0343 0,0.8423 -1.14573,1.0342 -6.17445,1.0342 h -6.17444 l -0.45275,-2.4133 c -0.24901,-1.3273 -0.69327,-2.4133 -0.98724,-2.4133 -0.29397,0 -0.74387,-1.3963 -0.99979,-3.1029 -0.25591,-1.7065 -0.71545,-3.1028 -1.0212,-3.1028 -0.30575,0 -0.88457,-1.4739 -1.28627,-3.2752 -0.80506,-3.6102 -2.69347,-9.5774 -3.55305,-11.2274 -0.30284,-0.5813 -0.76987,-2.0551 -1.03784,-3.2752 l -0.48723,-2.2183 H 246.64809 223.6587 l -0.47917,2.2409 c -0.26354,1.2325 -0.71779,2.5513 -1.00945,2.9305 -0.29165,0.3792 -0.75708,1.7755 -1.03428,3.1028 -0.2772,1.3274 -0.74263,2.7236 -1.03428,3.1029 -0.29165,0.3792 -0.7505,1.7188 -1.01965,2.9769 -0.26915,1.2581 -0.92364,3.1198 -1.45441,4.1371 -0.53078,1.0174 -0.96696,2.5296 -0.9693,3.3605 -0.002,0.8309 -0.28335,1.6832 -0.62449,1.894 -0.34113,0.2109 -0.99264,1.9358 -1.44781,3.8331 l -0.82758,3.4497 h -5.52778 -5.52778 z m 62.35298,-40.6818 c 0.12119,-0.8533 -0.0621,-1.5514 -0.40741,-1.5514 -0.34527,0 -1.02196,-1.7842 -1.50376,-3.9648 -0.4818,-2.1806 -1.12398,-4.275 -1.42706,-4.6542 -0.30309,-0.3793 -0.76851,-1.8531 -1.03427,-3.2753 -0.26576,-1.4221 -0.72372,-2.5857 -1.01769,-2.5857 -0.29397,0 -0.74388,-1.3962 -0.99979,-3.1028 -0.25592,-1.7066 -0.72134,-3.1029 -1.03428,-3.1029 -0.31294,0 -0.77837,-1.3962 -1.03429,-3.1028 -0.25591,-1.7066 -0.75657,-3.1028 -1.11257,-3.1028 -0.356,0 -0.64727,-0.4305 -0.64727,-0.9565 0,-1.0374 -5.12067,-17.1309 -6.16777,-19.3844 -0.35242,-0.7585 -0.83633,-2.0772 -1.07533,-2.9305 -0.23901,-0.8533 -0.80589,-1.5514 -1.25973,-1.5514 -1.03411,0 -3.05221,4.5748 -3.64021,8.2519 -0.24453,1.5292 -0.68795,2.7804 -0.98539,2.7804 -0.29743,0 -0.7502,1.2395 -1.00615,2.7545 -0.25595,1.5149 -0.72165,2.9129 -1.03489,3.1064 -0.31324,0.1936 -0.77894,1.5915 -1.03489,3.1065 -0.25596,1.515 -0.72111,2.7545 -1.03368,2.7545 -0.31256,0 -0.77772,1.2395 -1.03367,2.7544 -0.25595,1.515 -0.70847,2.9048 -1.00561,3.0884 -0.29713,0.1837 -0.95471,2.2021 -1.46128,4.4855 -0.50656,2.2834 -1.14003,4.1516 -1.40771,4.1516 -0.26768,0 -0.6961,1.2395 -0.95205,2.7545 -0.25595,1.515 -0.71347,2.9078 -1.01672,3.0952 -0.30325,0.1874 -0.75328,1.4171 -1.00007,2.7326 -0.24678,1.3155 -0.90062,3.2582 -1.45296,4.3171 -1.08461,2.0794 -1.29179,3.8298 -0.54204,4.5795 0.25889,0.2589 8.71414,0.3882 18.78946,0.2873 l 18.31875,-0.1834 z"
       id="path16-9" /><path
       style="fill:#000000;stroke:none;stroke-width:0.672283;stroke-dasharray:none;stroke-opacity:1"
       d="m 340.07823,-1186.888 c -0.94809,-0.3222 -3.97336,-0.9792 -6.72283,-1.46 -2.74947,-0.4808 -4.99903,-1.1347 -4.99903,-1.4531 0,-0.3184 -0.42081,-0.5789 -0.93513,-0.5789 -1.11525,0 -7.04906,-4.4261 -9.2246,-6.8807 -2.67584,-3.0191 -2.94601,-3.3899 -3.63917,-4.9953 -0.37277,-0.8633 -0.9691,-2.0351 -1.3252,-2.604 -1.69221,-2.7033 -2.85835,-6.0857 -3.25156,-9.4313 -0.23721,-2.0183 -0.69885,-3.6696 -1.02587,-3.6696 -0.32702,0 -0.59459,-17.3759 -0.59459,-38.6132 v -38.6132 h 5.51617 5.51617 v 36.504 c 0,20.0771 0.26639,36.6685 0.59198,36.8698 0.32559,0.2012 0.76103,2.1588 0.96764,4.3502 0.20662,2.1914 0.86917,4.9152 1.47234,6.0529 0.60317,1.1377 1.09859,2.4564 1.10092,2.9304 0.002,0.4741 0.23696,0.8703 0.52139,0.8805 0.28443,0.01 1.27678,1.2499 2.20523,2.755 0.92844,1.505 2.24715,2.9139 2.93046,3.1307 0.68331,0.2169 1.24238,0.6434 1.24238,0.9478 0,0.3044 1.47386,0.9498 3.27523,1.4342 1.80138,0.4845 3.57,1.1454 3.93027,1.4687 0.86228,0.7738 16.73774,0.7636 17.21654,-0.011 0.20359,-0.3294 1.55669,-0.7887 3.00689,-1.0206 2.74415,-0.4388 8.2923,-5.0354 10.68861,-8.8554 3.5669,-5.6861 3.51208,-4.9933 3.7674,-47.6172 l 0.23852,-39.8199 h 6.17436 6.17437 v 35.8144 c 0,19.698 -0.26388,35.9775 -0.5864,36.1769 -0.32251,0.1993 -0.78784,2.7455 -1.03406,5.6583 -0.24622,2.9128 -0.72222,5.6381 -1.05779,6.0564 -0.33556,0.4182 -0.82574,1.7688 -1.08928,3.0013 -0.26354,1.2325 -0.74015,2.241 -1.05912,2.241 -0.31897,0 -0.7844,0.9308 -1.03428,2.0685 -0.24988,1.1377 -0.73997,2.0686 -1.08907,2.0686 -0.3491,0 -0.63473,0.4056 -0.63473,0.9013 0,1.0807 -7.78764,8.752 -8.88475,8.752 -0.42271,0 -0.76855,0.2767 -0.76855,0.6148 0,0.3381 -0.85018,0.8281 -1.88928,1.0889 -1.0391,0.2608 -2.07662,0.7773 -2.3056,1.1478 -1.11182,1.799 -19.72044,3.9546 -23.38598,2.7091 z"
       id="path17-8" /><path
       style="fill:#000000;stroke:none;stroke-width:0.672283;stroke-dasharray:none;stroke-opacity:1"
       d="m 412.47797,-1241.7335 v -53.6441 l 20.65639,0.3312 c 12.64266,0.2027 21.00211,0.6072 21.54754,1.0425 0.49014,0.3912 2.36667,0.9248 4.17007,1.1858 1.8034,0.261 4.13053,0.9188 5.17141,1.4618 1.04087,0.5429 2.27582,0.9891 2.74432,0.9914 1.56745,0.01 8.84424,4.1822 11.59645,6.6524 1.49666,1.3433 3.50195,3.112 4.45621,3.9304 2.01259,1.7262 7.57353,10.0292 7.57353,11.308 0,0.4772 0.31028,0.8677 0.68952,0.8677 0.37923,0 0.68952,0.341 0.68952,0.7577 0,0.4167 0.43664,1.7354 0.97031,2.9305 4.77279,10.6874 4.78402,32.5328 0.0221,42.9587 -0.54582,1.195 -0.9924,2.5137 -0.9924,2.9305 0,0.4167 -0.27665,0.7577 -0.61477,0.7577 -0.33813,0 -0.82816,0.8501 -1.08896,1.8892 -0.26079,1.0391 -0.68228,2.0476 -0.93664,2.241 -0.25437,0.1934 -0.9279,1.1704 -1.49676,2.1711 -1.16253,2.0451 -5.38671,7.3379 -6.76065,8.4709 -0.49484,0.4081 -1.84098,1.6116 -2.99142,2.6745 -2.41551,2.2317 -12.07993,7.3724 -13.86403,7.3746 -0.66367,8e-4 -1.20667,0.2812 -1.20667,0.6232 0,0.342 -1.93928,0.8448 -4.30951,1.1172 -2.37023,0.2725 -4.48177,0.7665 -4.69232,1.0978 -0.21055,0.3312 -9.59666,0.8093 -20.85802,1.0624 l -20.47521,0.46 z m 42.61788,41.2548 c 0.26247,-0.4082 1.95106,-0.9595 3.75243,-1.225 1.80138,-0.2655 3.27523,-0.7493 3.27523,-1.0752 0,-0.3258 0.93086,-0.7969 2.06857,-1.0468 1.13771,-0.2499 2.06856,-0.74 2.06856,-1.0891 0,-0.3491 0.40906,-0.6347 0.90903,-0.6347 0.75726,0 4.91068,-3.2054 6.85989,-5.2941 2.74043,-2.9366 4.72774,-5.6592 5.06932,-6.9449 0.22669,-0.8533 0.66416,-1.5514 0.97215,-1.5514 0.30799,0 0.77561,-1.0084 1.03915,-2.241 0.26355,-1.2325 0.74616,-2.574 1.07247,-2.9811 0.69575,-0.868 2.29909,-13.0374 2.30989,-17.5321 0.0101,-4.2218 -1.60904,-15.9669 -2.3243,-16.86 -0.31838,-0.3976 -0.79451,-1.7312 -1.05806,-2.9638 -0.26354,-1.2325 -0.73116,-2.2409 -1.03915,-2.2409 -0.30799,0 -0.75666,-0.7836 -0.99703,-1.7414 -0.24038,-0.9577 -0.97216,-2.3104 -1.62618,-3.006 -0.65402,-0.6956 -2.09635,-2.3943 -3.20519,-3.7748 -1.10884,-1.3806 -2.31577,-2.5102 -2.68207,-2.5102 -0.3663,0 -1.01049,-0.4364 -1.43154,-0.9698 -1.07215,-1.3583 -8.22231,-5.0251 -10.92645,-5.6033 -1.23776,-0.2647 -2.68595,-0.8333 -3.21822,-1.2636 -0.63697,-0.5149 -6.35205,-0.8664 -16.72089,-1.0284 l -15.75314,-0.2461 v 42.5616 42.5616 l 15.55416,-0.2786 c 10.05562,-0.1801 15.72287,-0.541 16.03137,-1.0209 z"
       id="path18-6" /><path
       style="fill:#000000;stroke:none;stroke-width:0.672283;stroke-dasharray:none;stroke-opacity:1"
       d="m 341.45728,-1311.391 c 0,-0.5689 0.27664,-1.0343 0.61477,-1.0343 0.33812,0 0.82623,-0.8425 1.08468,-1.8723 0.25845,-1.0297 1.0678,-3.1847 1.79855,-4.7888 0.73076,-1.6041 1.32865,-3.2439 1.32865,-3.6439 0,-0.4 0.31028,-0.7273 0.68952,-0.7273 0.37923,0 0.70005,-0.3879 0.71291,-0.8619 0.0129,-0.4741 0.62291,-2.1031 1.35565,-3.62 0.73274,-1.517 1.34278,-3.146 1.35565,-3.62 0.0129,-0.4741 0.30902,-0.8619 0.65813,-0.8619 0.3491,0 0.83918,-0.9309 1.08907,-2.0686 l 0.45433,-2.0686 h 6.84043 c 3.76223,0 6.84042,0.1594 6.84042,0.3542 0,0.3906 -1.41648,2.9539 -2.26159,4.0926 -3.83292,5.1646 -6.46987,8.9142 -8.26827,11.757 -1.19957,1.8962 -2.34722,3.6028 -2.55035,3.7924 -0.20313,0.1896 -1.26394,1.6634 -2.35735,3.2752 -1.92415,2.8363 -2.10685,2.9305 -5.68661,2.9305 -2.82796,0 -3.69859,-0.2435 -3.69859,-1.0343 z"
       id="path19-5" /><path
       style="fill:#000000;stroke:none;stroke-width:1.34457;stroke-dasharray:none;stroke-opacity:1"
       d="m 520.0433,-1242.0941 v -53.0932 h 32.40751 32.40751 v 5.4864 5.4864 l -26.54658,0.3746 -26.54657,0.3745 v 15.1695 15.1694 l 26.54657,0.3746 26.54658,0.3745 v 5.4864 5.4864 h -26.92726 -26.92725 l 0.38068,21.0304 0.38068,21.0304 26.54657,0.3745 26.54658,0.3746 v 4.7969 4.7968 H 552.45081 520.0433 Z"
       id="path20-0" /></g></svg>
