<?xml version="1.0" encoding="UTF-8" standalone="no"?>
<!-- Created with Inkscape (http://www.inkscape.org/) -->

<svg
   version="1.1"
   id="svg1"
   width="800"
   height="533"
   viewBox="0 0 800 533"
   xml:space="preserve"
   xmlns="http://www.w3.org/2000/svg"
   xmlns:svg="http://www.w3.org/2000/svg"><defs
     id="defs1" /><g
     id="layer6"
     transform="translate(-78.010435,826.91061)"><path
       style="fill:#0bbdb3;fill-opacity:1;stroke:none;stroke-width:0.672283;stroke-dasharray:none;stroke-opacity:1"
       d="m 251.488,-580.7389 c -1.13332,-0.29616 -1.20666,-2.9934 -1.20666,-44.37892 v -44.0636 l -27.75324,-0.34208 c -15.26427,-0.18814 -31.7869,-0.4277 -36.717,-0.53235 l -8.9638,-0.19028 -0.1866,13.96281 -0.1867,13.96281 h -5.9084 -5.9084 l 0.2341,-17.06565 0.2342,-17.06566 2.5364,-2.59422 c 1.9373,-1.98132 3.3849,-2.75511 6.1275,-3.27522 4.8413,-0.91815 73.08384,-0.89892 77.94925,0.022 2.04275,0.38663 3.81753,1.0072 3.94394,1.37904 0.12641,0.37184 0.65633,0.67607 1.1776,0.67607 1.17804,0 4.45349,5.46626 4.45349,7.43225 0,0.79758 0.31028,1.64191 0.68952,1.87629 0.44831,0.27708 0.68952,16.21091 0.68952,45.5491 v 45.12296 l -4.99903,-0.08 c -2.74946,-0.044 -5.54203,-0.22189 -6.20569,-0.39533 z"
       id="path12-2" /><path
       style="fill:#0bbdb3;fill-opacity:1;stroke:none;stroke-width:0.672283;stroke-dasharray:none;stroke-opacity:1"
       d="m 174.8115,-456.78621 c -0.2163,-0.35007 -1.3199,-0.83999 -2.4524,-1.08874 -1.2796,-0.28103 -3.0387,-1.64748 -4.6464,-3.60925 l -2.5872,-3.15699 -0.191,-46.77886 -0.1909,-46.77886 h 5.8744 5.8744 l 0.1775,44.30175 0.1774,44.30175 36.71703,0.17842 36.71701,0.17843 v -14.14124 -14.14122 h 6.24301 6.243 l -0.3507,9.13615 c -0.19289,5.02489 -0.59753,13.06019 -0.89922,17.85623 -0.61265,9.73977 -1.03526,10.65781 -6.01345,13.06301 -2.58093,1.24696 -4.7552,1.31589 -41.51133,1.31589 -22.95945,0 -38.94825,-0.25973 -39.18115,-0.63647 z"
       id="path14-8" /><path
       style="fill:#2cc795;fill-opacity:1;stroke:none;stroke-width:0.672283;stroke-dasharray:none;stroke-opacity:1"
       d="m 123.5818,-518.0336 c -8.438,-0.1097 -15.3419,-0.44147 -15.3419,-0.73726 0,-0.2958 -1.0118,-0.90369 -2.2484,-1.35087 -1.4335,-0.51834 -2.7456,-1.73619 -3.62,-3.35983 -1.3237,-2.45801 -1.3715,-3.9326 -1.3715,-42.30208 0,-38.4005 0.047,-39.84681 1.379,-42.44065 1.8872,-3.67477 3.1183,-4.94187 5.3438,-5.49989 1.0429,-0.2615 1.8962,-0.7521 1.8962,-1.09023 0,-0.35394 19.7466,-0.61477 46.5427,-0.61477 h 46.54267 v 6.20569 6.2057 H 158.683 114.6615 l -0.4504,10.85996 c -0.2477,5.97298 -0.4514,22.5732 -0.4527,36.88939 v 26.02943 h 13.7904 13.7905 v 5.86093 c 0,5.18254 -0.1397,5.84258 -1.2067,5.70243 -0.6637,-0.0872 -8.1105,-0.24825 -16.5485,-0.35795 z"
       id="path11-0" /><path
       style="fill:#2cc795;fill-opacity:1;stroke:none;stroke-width:0.672283;stroke-dasharray:none;stroke-opacity:1"
       d="m 221.59677,-519.24095 0.82838,-6.20569 0.4142,-3.10285 h 43.6945 43.69451 l 0.36215,-19.47898 c 0.19918,-10.71344 0.52915,-27.31366 0.73327,-36.88939 l 0.37112,-17.41041 h -14.15827 -14.15827 v -5.96947 -5.96946 l 11.89425,0.45119 c 6.54183,0.24815 14.25995,0.45213 17.15136,0.45329 5.00278,0.002 5.3794,0.11411 7.78451,2.3171 1.70131,1.55834 2.6606,3.13593 2.93497,4.82665 0.22417,1.38141 0.67728,2.51165 1.00689,2.51165 0.78269,0 0.78538,74.96143 0.003,75.44515 -0.32813,0.20279 -0.77144,1.44622 -0.98515,2.76317 -0.48182,2.96907 -4.10798,7.06943 -6.76868,7.65382 -1.09582,0.24068 -1.99241,0.72324 -1.99241,1.07234 0,0.38037 -18.67921,0.63473 -46.61212,0.63473 h -46.61212 z"
       id="path13-4" /><path
       style="fill:#00b4aa;fill-opacity:1;stroke:none;stroke-width:0.672283;stroke-dasharray:none;stroke-opacity:1"
       d="m 390.59893,-510.36003 c -5.89267,-0.4334 -14.44687,-1.73725 -15.16947,-2.31216 -0.37923,-0.30172 -1.76533,-0.77902 -3.08021,-1.06064 -1.31488,-0.28164 -2.86631,-0.78096 -3.44761,-1.10962 -0.5813,-0.32865 -2.60834,-1.183 -4.50452,-1.89855 l -3.44761,-1.301 -0.19496,-7.66707 c -0.10723,-4.21689 -0.0265,-7.66707 0.17945,-7.66707 0.20593,0 1.91948,1.086 3.80788,2.41333 1.88841,1.32732 3.74693,2.41332 4.13006,2.41332 0.38312,0 0.69659,0.28563 0.69659,0.63473 0,0.34911 0.93085,0.83919 2.06856,1.08907 1.13772,0.24989 2.06857,0.71531 2.06857,1.03429 0,0.31897 1.00842,0.79872 2.24094,1.06612 1.23252,0.26739 2.40806,0.74721 2.61231,1.06626 0.20425,0.31905 2.68652,0.93342 5.51617,1.36527 2.82964,0.43185 5.6836,1.06268 6.34212,1.40185 1.5353,0.79075 15.00644,0.81057 15.00644,0.0221 0,-0.32702 1.76254,-0.80174 3.91676,-1.05493 4.26029,-0.50071 7.4021,-2.13058 10.9542,-5.68267 3.75165,-3.75166 4.79276,-6.69484 4.69103,-13.26146 -0.0491,-3.17291 -0.36575,-5.96547 -0.70355,-6.20569 -0.33781,-0.24022 -0.99305,-1.29875 -1.45609,-2.35229 -0.46305,-1.05355 -1.38759,-2.11615 -2.05453,-2.36133 -0.66695,-0.24518 -1.46076,-0.85705 -1.76404,-1.35969 -0.30327,-0.50264 -1.00141,-0.9139 -1.55142,-0.9139 -0.55001,0 -1.00002,-0.29127 -1.00002,-0.64727 0,-0.356 -1.39628,-0.85666 -3.10284,-1.11257 -1.70657,-0.25592 -3.10285,-0.70989 -3.10285,-1.00883 0,-0.29894 -1.93928,-0.7637 -4.30951,-1.0328 -2.37023,-0.2691 -4.61979,-0.7227 -4.99903,-1.00801 -0.37923,-0.2853 -2.55123,-0.71408 -4.82665,-0.95283 -4.09521,-0.42969 -16.22836,-3.22371 -16.89327,-3.89018 -0.18962,-0.19006 -1.56601,-0.96614 -3.05864,-1.72461 -6.86627,-3.48906 -12.41429,-9.84288 -13.28621,-15.21589 -0.21126,-1.3018 -0.65379,-2.36691 -0.9834,-2.36691 -0.32962,0 -0.59931,-2.9477 -0.59931,-6.55045 0,-3.90729 0.27823,-6.55045 0.68953,-6.55045 0.37923,0 0.68952,-0.70294 0.68952,-1.56209 0,-0.85915 0.7244,-2.91644 1.60978,-4.57176 1.74587,-3.26411 8.17679,-10.16976 10.4359,-11.20629 0.76999,-0.35329 3.10655,-1.55564 5.19235,-2.67189 2.0858,-1.11625 4.61979,-2.03475 5.63109,-2.0411 1.0113,-0.006 1.96742,-0.39764 2.12472,-0.86953 0.36875,-1.10624 24.08636,-1.14431 25.46791,-0.0409 0.49917,0.39869 2.45901,0.94821 4.35519,1.22116 1.89619,0.27295 3.7579,0.74168 4.13713,1.04164 0.37924,0.29995 1.76534,0.77579 3.08022,1.05743 1.31488,0.28163 2.8663,0.757 3.4476,1.05638 0.58131,0.29938 2.06534,0.91814 3.29786,1.37502 l 2.24095,0.83069 v 7.15632 c 0,4.3112 -0.27414,7.15632 -0.68953,7.15632 -0.37923,0 -0.6906,-0.23271 -0.69193,-0.51714 -0.001,-0.28442 -1.78546,-1.44799 -3.96475,-2.5857 -2.17928,-1.13771 -4.11747,-2.2623 -4.30709,-2.49908 -0.18962,-0.23678 -1.35319,-0.64929 -2.58571,-0.91669 -1.23252,-0.26739 -2.24094,-0.74453 -2.24094,-1.0603 0,-0.31577 -1.31871,-0.79162 -2.93047,-1.05746 -1.61175,-0.26583 -3.3657,-0.8361 -3.89766,-1.26727 -1.41678,-1.14834 -24.52316,-1.07819 -25.68132,0.078 -0.47486,0.47404 -1.35912,0.8619 -1.96502,0.8619 -1.2921,0 -8.22582,4.87691 -8.25555,5.80663 -0.0112,0.34938 -0.5633,1.23524 -1.22697,1.96858 -1.76776,1.95335 -1.76776,14.90373 0,16.85708 0.66367,0.73334 1.20666,1.56379 1.20666,1.84544 0,0.78053 1.87187,2.48216 2.73048,2.48216 0.41823,0 0.93174,0.44647 1.14113,0.99215 0.2094,0.54568 1.36323,1.20208 2.56407,1.45866 1.20084,0.25659 2.49363,0.71034 2.87286,1.00834 0.70791,0.55627 4.5039,1.30433 16.54851,3.26114 3.79237,0.61612 7.05036,1.32585 7.23998,1.57717 0.18962,0.25133 1.72565,0.67282 3.4134,0.93664 1.68775,0.26383 3.39431,0.73358 3.79236,1.04389 0.39805,0.31031 1.58537,0.77014 2.63848,1.02184 4.76895,1.1398 13.58081,8.10543 14.6708,11.59703 0.27148,0.86963 0.77026,1.75967 1.10841,1.97787 0.33814,0.21819 0.80497,2.00233 1.03739,3.96475 0.23242,1.96241 0.68964,3.56803 1.01606,3.56803 0.32641,0 0.59347,1.70656 0.59347,3.79236 0,2.08581 -0.27031,3.79237 -0.60069,3.79237 -0.33037,0 -0.80649,1.55142 -1.05803,3.44761 -0.25153,1.89618 -0.73228,3.44761 -1.06833,3.44761 -0.33603,0 -0.81543,0.93085 -1.06531,2.06856 -0.24989,1.13771 -0.73997,2.06856 -1.08907,2.06856 -0.3491,0 -0.63474,0.46551 -0.63474,1.03445 0,1.39888 -6.69967,7.94584 -9.86236,9.63755 -1.40196,0.74991 -2.54902,1.60319 -2.54902,1.89618 0,0.293 -0.38786,0.53464 -0.8619,0.53698 -0.47405,0.002 -1.72925,0.45666 -2.78935,1.00961 -3.64218,1.89977 -17.16068,3.32029 -25.65341,2.69565 z"
       id="path15-6" /><path
       style="fill:#00b4aa;fill-opacity:1;stroke:none;stroke-width:0.672283;stroke-dasharray:none;stroke-opacity:1"
       d="m 449.13252,-513.20764 c 0.2364,-1.0429 0.62345,-2.90461 0.86013,-4.13713 0.23667,-1.23252 0.67273,-2.24094 0.96901,-2.24094 0.29628,0 0.74811,-1.23951 1.00406,-2.75447 0.25595,-1.51497 0.72165,-2.91287 1.03489,-3.10646 0.31324,-0.19359 0.77895,-1.5915 1.0349,-3.10646 0.25595,-1.51496 0.72936,-2.75447 1.05203,-2.75447 0.32266,0 0.79605,-1.39629 1.05196,-3.10285 0.25592,-1.70657 0.69796,-3.10285 0.98231,-3.10285 0.28436,0 0.9121,-1.8617 1.39497,-4.13713 0.48288,-2.27542 1.11858,-4.13712 1.41266,-4.13712 0.29408,0 0.74411,-1.23951 1.00006,-2.75448 0.25595,-1.51496 0.72165,-2.91286 1.03489,-3.10645 0.31324,-0.1936 0.77894,-1.5915 1.03489,-3.10646 0.25595,-1.51496 0.72111,-2.75448 1.03368,-2.75448 0.31256,0 0.77772,-1.23951 1.03367,-2.75447 0.25595,-1.51496 0.71347,-2.90781 1.01672,-3.09523 0.30325,-0.18742 0.76944,-1.50775 1.03599,-2.93408 0.26654,-1.42632 0.72651,-2.9036 1.02215,-3.28284 0.29563,-0.37924 0.91961,-2.31947 1.38662,-4.31163 0.46701,-1.99217 1.10121,-3.77793 1.40935,-3.96837 0.30813,-0.19043 0.76965,-1.58576 1.0256,-3.10071 0.25595,-1.51496 0.7211,-2.75448 1.03367,-2.75448 0.31257,0 0.77772,-1.23951 1.03367,-2.75447 0.25595,-1.51496 0.71348,-2.90781 1.01673,-3.09523 0.30324,-0.18742 0.75327,-1.41707 1.00006,-2.73257 0.24679,-1.3155 0.90062,-3.25821 1.45296,-4.31713 0.55234,-1.05892 1.00808,-2.54588 1.01275,-3.30435 0.005,-0.75847 0.47491,-2.27338 1.04497,-3.36646 0.57006,-1.09307 1.22838,-3.18749 1.46292,-4.65426 0.23455,-1.46677 0.66344,-2.66686 0.9531,-2.66686 0.28965,0 0.73278,-0.85328 0.98472,-1.89618 0.25195,-1.0429 0.82675,-2.74947 1.27735,-3.79237 l 0.81928,-1.89618 h 7.93761 7.93762 l 0.81927,1.89618 c 0.4506,1.0429 1.03455,2.82704 1.29768,3.96475 0.26312,1.13771 0.71814,2.37885 1.01115,2.75808 0.29301,0.37924 0.75018,1.85309 1.01594,3.27523 0.26576,1.42214 0.72442,2.5857 1.01925,2.5857 0.29482,0 0.75348,1.16357 1.01924,2.58571 0.26576,1.42214 0.71827,2.89599 1.00557,3.27523 0.2873,0.37923 1.36313,3.48208 2.39073,6.89521 1.02761,3.41313 2.13983,6.71049 2.47161,7.32747 0.33179,0.61698 0.81414,2.24597 1.07191,3.61998 0.25777,1.37402 0.71715,2.49821 1.02084,2.49821 0.3037,0 0.7616,1.23952 1.01755,2.75448 0.25595,1.51496 0.74865,2.92955 1.09488,3.14354 0.34625,0.21398 0.63144,0.91375 0.63378,1.55503 0.002,0.64129 0.44259,2.0062 0.97834,3.03314 0.53575,1.02695 1.35892,3.5868 1.82928,5.68855 0.47035,2.10176 1.08086,3.82138 1.35669,3.82138 0.27583,0 0.71089,1.39628 0.96681,3.10285 0.25591,1.70657 0.7293,3.10285 1.05197,3.10285 0.32266,0 0.79607,1.23951 1.05202,2.75447 0.25596,1.51496 0.72165,2.91287 1.0349,3.10646 0.31324,0.19359 0.77893,1.5915 1.03489,3.10646 0.25595,1.51496 0.74837,2.75447 1.09428,2.75447 0.3459,0 0.62891,0.5579 0.62891,1.23979 0,1.2084 3.4122,11.51554 4.27079,12.90065 0.23687,0.38212 0.64851,1.85597 0.91476,3.27523 0.26626,1.41925 0.72462,2.58045 1.01859,2.58045 0.29397,0 0.74388,1.39628 0.99979,3.10284 0.25592,1.70657 0.75657,3.10285 1.11257,3.10285 0.356,0 0.64728,0.46543 0.64728,1.03428 0,0.84236 -1.14573,1.03428 -6.17445,1.03428 h -6.17444 l -0.45275,-2.41332 c -0.24901,-1.32733 -0.69327,-2.41333 -0.98724,-2.41333 -0.29397,0 -0.74387,-1.39628 -0.99979,-3.10284 -0.25591,-1.70657 -0.71545,-3.10285 -1.0212,-3.10285 -0.30575,0 -0.88457,-1.47385 -1.28627,-3.27522 -0.80506,-3.61017 -2.69347,-9.5774 -3.55305,-11.22736 -0.30284,-0.5813 -0.76987,-2.05516 -1.03784,-3.27522 l -0.48723,-2.21832 H 492.64809 469.6587 l -0.47917,2.24095 c -0.26354,1.23252 -0.71779,2.55123 -1.00945,2.93046 -0.29165,0.37924 -0.75708,1.77552 -1.03428,3.10285 -0.2772,1.32733 -0.74263,2.72361 -1.03428,3.10285 -0.29165,0.37923 -0.7505,1.71884 -1.01965,2.97691 -0.26915,1.25806 -0.92364,3.11977 -1.45441,4.13713 -0.53078,1.01735 -0.96696,2.52956 -0.9693,3.36046 -0.002,0.8309 -0.28335,1.68323 -0.62449,1.89406 -0.34113,0.21083 -0.99264,1.93571 -1.44781,3.83306 l -0.82758,3.44973 h -5.52778 -5.52778 z m 62.35298,-40.68176 c 0.12119,-0.85328 -0.0621,-1.55142 -0.40741,-1.55142 -0.34527,0 -1.02196,-1.78414 -1.50376,-3.96475 -0.4818,-2.18061 -1.12398,-4.27503 -1.42706,-4.65427 -0.30309,-0.37924 -0.76851,-1.85309 -1.03427,-3.27523 -0.26576,-1.42213 -0.72372,-2.5857 -1.01769,-2.5857 -0.29397,0 -0.74388,-1.39628 -0.99979,-3.10285 -0.25592,-1.70656 -0.72134,-3.10284 -1.03428,-3.10284 -0.31294,0 -0.77837,-1.39628 -1.03429,-3.10285 -0.25591,-1.70656 -0.75657,-3.10284 -1.11257,-3.10284 -0.356,0 -0.64727,-0.43042 -0.64727,-0.95648 0,-1.03736 -5.12067,-17.1309 -6.16777,-19.3844 -0.35242,-0.75848 -0.83633,-2.07719 -1.07533,-2.93047 -0.23901,-0.85328 -0.80589,-1.55142 -1.25973,-1.55142 -1.03411,0 -3.05221,4.5748 -3.64021,8.25194 -0.24453,1.52922 -0.68795,2.7804 -0.98539,2.7804 -0.29743,0 -0.7502,1.23951 -1.00615,2.75447 -0.25595,1.51496 -0.72165,2.91287 -1.03489,3.10646 -0.31324,0.19359 -0.77894,1.5915 -1.03489,3.10646 -0.25596,1.51496 -0.72111,2.75447 -1.03368,2.75447 -0.31256,0 -0.77772,1.23951 -1.03367,2.75447 -0.25595,1.51496 -0.70847,2.90473 -1.00561,3.08837 -0.29713,0.18364 -0.95471,2.20211 -1.46128,4.4855 -0.50656,2.28338 -1.14003,4.15161 -1.40771,4.15161 -0.26768,0 -0.6961,1.23951 -0.95205,2.75447 -0.25595,1.51496 -0.71347,2.90781 -1.01672,3.09523 -0.30325,0.18742 -0.75328,1.41708 -1.00007,2.73258 -0.24678,1.31549 -0.90062,3.2582 -1.45296,4.31712 -1.08461,2.07937 -1.29179,3.82975 -0.54204,4.5795 0.25889,0.25889 8.71414,0.38817 18.78946,0.2873 l 18.31875,-0.18341 z"
       id="path16-5" /><path
       style="fill:#00b4aa;fill-opacity:1;stroke:none;stroke-width:0.672283;stroke-dasharray:none;stroke-opacity:1"
       d="m 586.07823,-509.88802 c -0.94809,-0.32217 -3.97336,-0.97914 -6.72283,-1.45995 -2.74947,-0.48082 -4.99903,-1.13472 -4.99903,-1.45313 0,-0.3184 -0.42081,-0.57892 -0.93513,-0.57892 -1.11525,0 -7.04906,-4.42604 -9.2246,-6.88066 -2.67584,-3.01909 -2.94601,-3.38994 -3.63917,-4.99532 -0.37277,-0.86333 -0.9691,-2.03511 -1.3252,-2.60397 -1.69221,-2.70328 -2.85835,-6.08573 -3.25156,-9.43133 -0.23721,-2.01827 -0.69885,-3.66957 -1.02587,-3.66957 -0.32702,0 -0.59459,-17.37594 -0.59459,-38.6132 v -38.61319 h 5.51617 5.51617 v 36.50393 c 0,20.07717 0.26639,36.66858 0.59198,36.8698 0.32559,0.20123 0.76103,2.15882 0.96764,4.35021 0.20662,2.19138 0.86917,4.91519 1.47234,6.0529 0.60317,1.13771 1.09859,2.45642 1.10092,2.93046 0.002,0.47405 0.23696,0.87025 0.52139,0.88045 0.28443,0.0102 1.27678,1.24995 2.20523,2.75499 0.92844,1.50506 2.24715,2.9139 2.93046,3.13077 0.68331,0.21687 1.24238,0.64337 1.24238,0.94777 0,0.30439 1.47386,0.94979 3.27523,1.43422 1.80138,0.48444 3.57,1.14533 3.93027,1.46866 0.86228,0.77384 16.73774,0.76363 17.21654,-0.0111 0.20359,-0.32941 1.55669,-0.78868 3.00689,-1.02058 2.74415,-0.4388 8.2923,-5.0354 10.68861,-8.85542 3.5669,-5.68609 3.51208,-4.99328 3.7674,-47.61722 l 0.23852,-39.81985 h 6.17436 6.17437 v 35.81441 c 0,19.69793 -0.26388,35.97751 -0.5864,36.17683 -0.32251,0.19933 -0.78784,2.74558 -1.03406,5.65833 -0.24622,2.91276 -0.72222,5.63812 -1.05779,6.05636 -0.33556,0.41823 -0.82574,1.76886 -1.08928,3.00137 -0.26354,1.23252 -0.74015,2.24095 -1.05912,2.24095 -0.31897,0 -0.7844,0.93085 -1.03428,2.06856 -0.24988,1.13771 -0.73997,2.06857 -1.08907,2.06857 -0.3491,0 -0.63473,0.40559 -0.63473,0.90132 0,1.08071 -7.78764,8.75198 -8.88475,8.75198 -0.42271,0 -0.76855,0.27665 -0.76855,0.61477 0,0.33812 -0.85018,0.82815 -1.88928,1.08895 -1.0391,0.2608 -2.07662,0.7773 -2.3056,1.1478 -1.11182,1.79896 -19.72044,3.95459 -23.38598,2.70904 z"
       id="path17-0" /><path
       style="fill:#00b4aa;fill-opacity:1;stroke:none;stroke-width:0.672283;stroke-dasharray:none;stroke-opacity:1"
       d="m 658.47797,-564.73347 v -53.6441 l 20.65639,0.3312 c 12.64266,0.20271 21.00211,0.60714 21.54754,1.04246 0.49014,0.39119 2.36667,0.92479 4.17007,1.18579 1.8034,0.261 4.13053,0.9188 5.17141,1.46178 1.04087,0.54297 2.27582,0.98914 2.74432,0.99148 1.56745,0.008 8.84424,4.18218 11.59645,6.65236 1.49666,1.34329 3.50195,3.11198 4.45621,3.93042 2.01259,1.72616 7.57353,10.02918 7.57353,11.30802 0,0.47721 0.31028,0.86765 0.68952,0.86765 0.37923,0 0.68952,0.34096 0.68952,0.75769 0,0.41674 0.43664,1.73545 0.97031,2.93047 4.77279,10.68746 4.78402,32.53289 0.0221,42.95874 -0.54582,1.19502 -0.9924,2.51373 -0.9924,2.93046 0,0.41674 -0.27665,0.7577 -0.61477,0.7577 -0.33813,0 -0.82816,0.85017 -1.08896,1.88927 -0.26079,1.0391 -0.68228,2.04753 -0.93664,2.24095 -0.25437,0.19341 -0.9279,1.17044 -1.49676,2.17115 -1.16253,2.04511 -5.38671,7.33788 -6.76065,8.47091 -0.49484,0.40807 -1.84098,1.61159 -2.99142,2.67448 -2.41551,2.23169 -12.07993,7.37239 -13.86403,7.37454 -0.66367,8.1e-4 -1.20667,0.28129 -1.20667,0.62328 0,0.34201 -1.93928,0.84475 -4.30951,1.11721 -2.37023,0.27246 -4.48177,0.76644 -4.69232,1.09772 -0.21055,0.33128 -9.59666,0.80936 -20.85802,1.0624 l -20.47521,0.46007 z m 42.61788,41.25479 c 0.26247,-0.40825 1.95106,-0.9595 3.75243,-1.22499 1.80138,-0.26549 3.27523,-0.74933 3.27523,-1.0752 0,-0.32587 0.93086,-0.79693 2.06857,-1.04682 1.13771,-0.24988 2.06856,-0.73996 2.06856,-1.08907 0,-0.3491 0.40906,-0.63473 0.90903,-0.63473 0.75726,0 4.91068,-3.2054 6.85989,-5.29412 2.74043,-2.93656 4.72774,-5.65915 5.06932,-6.94488 0.22669,-0.85329 0.66416,-1.55143 0.97215,-1.55143 0.30799,0 0.77561,-1.00842 1.03915,-2.24094 0.26355,-1.23252 0.74616,-2.57402 1.07247,-2.98111 0.69575,-0.86798 2.29909,-13.03747 2.30989,-17.53215 0.0101,-4.22174 -1.60904,-15.96692 -2.3243,-16.85999 -0.31838,-0.39754 -0.79451,-1.73123 -1.05806,-2.96375 -0.26354,-1.23252 -0.73116,-2.24094 -1.03915,-2.24094 -0.30799,0 -0.75666,-0.78361 -0.99703,-1.74135 -0.24038,-0.95773 -0.97216,-2.31046 -1.62618,-3.00605 -0.65402,-0.69559 -2.09635,-2.39426 -3.20519,-3.77483 -1.10884,-1.38056 -2.31577,-2.51012 -2.68207,-2.51012 -0.3663,0 -1.01049,-0.43643 -1.43154,-0.96984 -1.07215,-1.3583 -8.22231,-5.02508 -10.92645,-5.60335 -1.23776,-0.26469 -2.68595,-0.83329 -3.21822,-1.26354 -0.63697,-0.5149 -6.35205,-0.86641 -16.72089,-1.02842 l -15.75314,-0.24613 v 42.56161 42.56162 l 15.55416,-0.2786 c 10.05562,-0.18012 15.72287,-0.54101 16.03137,-1.02088 z"
       id="path18-9" /><path
       style="fill:#00b4aa;fill-opacity:1;stroke:none;stroke-width:0.672283;stroke-dasharray:none;stroke-opacity:1"
       d="m 587.45728,-634.39102 c 0,-0.56885 0.27664,-1.03428 0.61477,-1.03428 0.33812,0 0.82623,-0.84252 1.08468,-1.87226 0.25845,-1.02975 1.0678,-3.18472 1.79855,-4.78882 0.73076,-1.60411 1.32865,-3.24387 1.32865,-3.64391 0,-0.40004 0.31028,-0.72735 0.68952,-0.72735 0.37923,0 0.70005,-0.38786 0.71291,-0.8619 0.0129,-0.47405 0.62291,-2.10304 1.35565,-3.61999 0.73274,-1.51695 1.34278,-3.14594 1.35565,-3.61999 0.0129,-0.47404 0.30902,-0.8619 0.65813,-0.8619 0.3491,0 0.83918,-0.93085 1.08907,-2.06856 l 0.45433,-2.06857 h 6.84043 c 3.76223,0 6.84042,0.15936 6.84042,0.35412 0,0.39061 -1.41648,2.95393 -2.26159,4.09266 -3.83292,5.16462 -6.46987,8.91419 -8.26827,11.75698 -1.19957,1.89618 -2.34722,3.60275 -2.55035,3.79236 -0.20313,0.18962 -1.26394,1.66347 -2.35735,3.27523 -1.92415,2.83631 -2.10685,2.93047 -5.68661,2.93047 -2.82796,0 -3.69859,-0.24347 -3.69859,-1.03429 z"
       id="path19-0" /><path
       style="fill:#00b4aa;fill-opacity:1;stroke:none;stroke-width:1.34457;stroke-dasharray:none;stroke-opacity:1"
       d="m 766.0433,-565.09412 v -53.09314 h 32.40751 32.40751 v 5.48639 5.48639 l -26.54658,0.37454 -26.54657,0.37454 v 15.16947 15.16947 l 26.54657,0.37454 26.54658,0.37453 v 5.4864 5.48639 h -26.92726 -26.92725 l 0.38068,21.0304 0.38068,21.0304 26.54657,0.37454 26.54658,0.37454 v 4.79687 4.79687 H 798.45081 766.0433 Z"
       id="path20-06" /></g></svg>
