<?xml version="1.0" encoding="UTF-8" standalone="no"?>
<svg
   width="242.88666"
   zoomAndPan="magnify"
   viewBox="0 0 182.16499 84.780349"
   height="113.04047"
   preserveAspectRatio="xMidYMid"
   version="1.0"
   id="svg19"
   sodipodi:docname="loguinhoazul.svg"
   xmlns:inkscape="http://www.inkscape.org/namespaces/inkscape"
   xmlns:sodipodi="http://sodipodi.sourceforge.net/DTD/sodipodi-0.dtd"
   xmlns="http://www.w3.org/2000/svg"
   xmlns:svg="http://www.w3.org/2000/svg">
  <sodipodi:namedview
     id="namedview19"
     pagecolor="#ffffff"
     bordercolor="#000000"
     borderopacity="0.25"
     inkscape:showpageshadow="2"
     inkscape:pageopacity="0.0"
     inkscape:pagecheckerboard="0"
     inkscape:deskcolor="#d1d1d1" />
  <defs
     id="defs1" />
  <g
     fill="#000000"
     fill-opacity="0.4"
     id="g4"
     transform="translate(-631.04419,-370.39655)">
    <g
       transform="translate(629.93394,473.00504)"
       id="g3">
      <g
         id="g2">
        <path
           d="m 28.203125,-97.171875 c 2.550781,-0.726563 6.222656,-1.09375 11.015625,-1.09375 4.789062,0 8.273438,0.304687 10.453125,0.90625 3.039063,0.980469 5.410156,2.589844 7.109375,4.828125 1.695312,2.242188 2.546875,4.574219 2.546875,7 0,0.25 0,0.558594 0,0.921875 -0.125,1.449219 -0.3125,2.296875 -0.5625,2.546875 -0.242187,0.242188 -0.964844,0.359375 -2.171875,0.359375 -2.1875,-0.125 -5.710938,-0.425781 -10.5625,-0.90625 -3.148438,-0.363281 -5.179688,-0.578125 -6.09375,-0.640625 -0.90625,-0.0625 -1.480469,-0.09375 -1.71875,-0.09375 -1.335938,0 -2.609375,0.183594 -3.828125,0.546875 -4.125,0.96875 -6.765625,2.304687 -7.921875,4 -1.148438,1.699219 -1.71875,3.15625 -1.71875,4.375 0,1.210937 0.363281,2.480469 1.09375,3.8125 1.570312,2.679687 6,4.558594 13.28125,5.640625 4.125,0.617188 7.488281,1.46875 10.09375,2.5625 2.613281,1.085938 5.007812,2.65625 7.1875,4.71875 2.425781,2.304688 4.210938,4.761719 5.359375,7.375 1.15625,2.605469 1.734375,5.121094 1.734375,7.546875 0,0.367187 0,0.792969 0,1.28125 -0.355469,5.460937 -2.75,10.3125 -7.1875,14.5625 -4.429688,4.242187 -10.09375,7.089844 -17,8.546875 -1.949219,0.367188 -3.558594,0.546875 -4.828125,0.546875 -1.273437,0 -3,-0.179687 -5.1875,-0.546875 -3.886719,-0.601562 -7.648437,-1.816406 -11.28125,-3.640625 -1.21875,-0.726563 -1.828125,-1.210937 -1.828125,-1.453125 0,0 0,-0.0625 0,-0.1875 0,-0.363281 -0.726562,-1.273438 -2.171875,-2.734375 -1.699219,-1.695313 -2.945313,-3.210937 -3.734375,-4.546875 -0.792969,-1.332031 -1.429688,-2.96875 -1.90625,-4.90625 -0.617188,-2.0625 -1.28125,-3.578125 -2,-4.546875 -0.617188,-0.851563 -0.921875,-1.488281 -0.921875,-1.90625 0,-0.425781 0.363281,-0.640625 1.09375,-0.640625 0.601563,0 1.148437,0.484375 1.640625,1.453125 0.488281,0.730469 0.851562,1.09375 1.09375,1.09375 0.125,0 0.1875,0 0.1875,0 0,0 0.054688,0 0.171875,0 0.488281,0 1.460937,0.789063 2.921875,2.359375 1.9375,1.9375 4.023438,3.273438 6.265625,4 2.25,0.730469 5.375,1.09375 9.375,1.09375 2.789063,0 4.820313,-0.08594 6.09375,-0.265625 1.28125,-0.1875 2.707031,-0.703125 4.28125,-1.546875 2.425781,-1.21875 4.0625,-2.25 4.90625,-3.09375 0.851563,-1.09375 1.28125,-2.304688 1.28125,-3.640625 0,-0.726563 -0.214844,-1.910156 -0.640625,-3.546875 -0.429688,-1.644531 -1.609375,-2.828125 -3.546875,-3.546875 -1.335937,-0.488281 -4.125,-0.976563 -8.375,-1.46875 -4.242187,-0.476563 -7.851563,-1.414063 -10.828125,-2.8125 -2.96875,-1.394531 -5.605469,-3.425781 -7.90625,-6.09375 -3.28125,-3.394531 -5.136719,-6.425781 -5.5625,-9.09375 -0.417969,-2.675781 -0.625,-4.5 -0.625,-5.46875 0,-3.15625 0.785156,-6.3125 2.359375,-9.46875 3.519531,-7.15625 9.707031,-11.882813 18.5625,-14.1875 z m 0,0"
           id="path2" />
      </g>
    </g>
  </g>
  <g
     fill="#38b6ff"
     fill-opacity="1"
     id="g7"
     transform="translate(-631.04419,-370.39655)">
    <g
       transform="translate(625.59109,468.66216)"
       id="g6">
      <g
         id="g5">
        <path
           d="m 28.203125,-97.171875 c 2.550781,-0.726563 6.222656,-1.09375 11.015625,-1.09375 4.789062,0 8.273438,0.304687 10.453125,0.90625 3.039063,0.980469 5.410156,2.589844 7.109375,4.828125 1.695312,2.242188 2.546875,4.574219 2.546875,7 0,0.25 0,0.558594 0,0.921875 -0.125,1.449219 -0.3125,2.296875 -0.5625,2.546875 -0.242187,0.242188 -0.964844,0.359375 -2.171875,0.359375 -2.1875,-0.125 -5.710938,-0.425781 -10.5625,-0.90625 -3.148438,-0.363281 -5.179688,-0.578125 -6.09375,-0.640625 -0.90625,-0.0625 -1.480469,-0.09375 -1.71875,-0.09375 -1.335938,0 -2.609375,0.183594 -3.828125,0.546875 -4.125,0.96875 -6.765625,2.304687 -7.921875,4 -1.148438,1.699219 -1.71875,3.15625 -1.71875,4.375 0,1.210937 0.363281,2.480469 1.09375,3.8125 1.570312,2.679687 6,4.558594 13.28125,5.640625 4.125,0.617188 7.488281,1.46875 10.09375,2.5625 2.613281,1.085938 5.007812,2.65625 7.1875,4.71875 2.425781,2.304688 4.210938,4.761719 5.359375,7.375 1.15625,2.605469 1.734375,5.121094 1.734375,7.546875 0,0.367187 0,0.792969 0,1.28125 -0.355469,5.460937 -2.75,10.3125 -7.1875,14.5625 -4.429688,4.242187 -10.09375,7.089844 -17,8.546875 -1.949219,0.367188 -3.558594,0.546875 -4.828125,0.546875 -1.273437,0 -3,-0.179687 -5.1875,-0.546875 -3.886719,-0.601562 -7.648437,-1.816406 -11.28125,-3.640625 -1.21875,-0.726563 -1.828125,-1.210937 -1.828125,-1.453125 0,0 0,-0.0625 0,-0.1875 0,-0.363281 -0.726562,-1.273438 -2.171875,-2.734375 -1.699219,-1.695313 -2.945313,-3.210937 -3.734375,-4.546875 -0.792969,-1.332031 -1.429688,-2.96875 -1.90625,-4.90625 -0.617188,-2.0625 -1.28125,-3.578125 -2,-4.546875 -0.617188,-0.851563 -0.921875,-1.488281 -0.921875,-1.90625 0,-0.425781 0.363281,-0.640625 1.09375,-0.640625 0.601563,0 1.148437,0.484375 1.640625,1.453125 0.488281,0.730469 0.851562,1.09375 1.09375,1.09375 0.125,0 0.1875,0 0.1875,0 0,0 0.054688,0 0.171875,0 0.488281,0 1.460937,0.789063 2.921875,2.359375 1.9375,1.9375 4.023438,3.273438 6.265625,4 2.25,0.730469 5.375,1.09375 9.375,1.09375 2.789063,0 4.820313,-0.08594 6.09375,-0.265625 1.28125,-0.1875 2.707031,-0.703125 4.28125,-1.546875 2.425781,-1.21875 4.0625,-2.25 4.90625,-3.09375 0.851563,-1.09375 1.28125,-2.304688 1.28125,-3.640625 0,-0.726563 -0.214844,-1.910156 -0.640625,-3.546875 -0.429688,-1.644531 -1.609375,-2.828125 -3.546875,-3.546875 -1.335937,-0.488281 -4.125,-0.976563 -8.375,-1.46875 -4.242187,-0.476563 -7.851563,-1.414063 -10.828125,-2.8125 -2.96875,-1.394531 -5.605469,-3.425781 -7.90625,-6.09375 -3.28125,-3.394531 -5.136719,-6.425781 -5.5625,-9.09375 -0.417969,-2.675781 -0.625,-4.5 -0.625,-5.46875 0,-3.15625 0.785156,-6.3125 2.359375,-9.46875 3.519531,-7.15625 9.707031,-11.882813 18.5625,-14.1875 z m 0,0"
           id="path4" />
      </g>
    </g>
  </g>
  <g
     fill="#000000"
     fill-opacity="0.4"
     id="g10"
     transform="translate(-631.04419,-370.39655)">
    <g
       transform="translate(700.16376,452.74101)"
       id="g9">
      <g
         id="g8">
        <path
           d="m 28.515625,-51.296875 c 0.707031,-0.238281 1.820313,-0.316406 3.34375,-0.234375 1.425781,0 2.914063,0.21875 4.46875,0.65625 1.550781,0.4375 2.644531,1.414062 3.28125,2.921875 0.238281,0.398437 0.359375,1.011719 0.359375,1.84375 0,0.835937 -0.164062,1.652344 -0.484375,2.453125 -0.15625,0.398438 -0.355469,0.976562 -0.59375,1.734375 -0.242187,0.75 -0.558594,1.683594 -0.953125,2.796875 -0.398438,1.117188 -0.679688,1.96875 -0.84375,2.5625 -0.15625,0.59375 -0.273438,0.96875 -0.34375,1.125 0.07031,0.5625 0.304688,0.765625 0.703125,0.609375 0.08203,0 0.363281,-0.05469 0.84375,-0.171875 0.476563,-0.125 0.992187,-0.242188 1.546875,-0.359375 0.5625,-0.125 1.078125,-0.222656 1.546875,-0.296875 0.476563,-0.08203 0.757813,-0.125 0.84375,-0.125 0.15625,0 0.472656,-0.08203 0.953125,-0.25 0.238281,-0.238281 1.429688,-0.554688 3.578125,-0.953125 0.15625,0 0.488281,-0.03516 1,-0.109375 0.519531,-0.08203 1.21875,-0.203125 2.09375,-0.359375 0.40625,-0.08203 0.960937,-0.144531 1.671875,-0.1875 0.71875,-0.03906 1.554688,-0.0625 2.515625,-0.0625 1.90625,0 2.898437,0.121094 2.984375,0.359375 0.226562,0.242188 0.226562,0.359375 0,0.359375 -0.324219,0 -0.726562,0.203125 -1.203125,0.609375 -0.480469,0.398438 -0.917969,0.855469 -1.3125,1.375 -0.398437,0.511719 -0.777344,1.046875 -1.140625,1.609375 -0.355469,0.554687 -0.570312,0.984375 -0.640625,1.296875 -0.242187,1.273438 -0.5,2.34375 -0.78125,3.21875 -0.28125,0.875 -0.664063,1.59375 -1.140625,2.15625 -0.46875,0.554688 -1.085938,0.992188 -1.84375,1.3125 -0.75,0.3125 -1.804688,0.554688 -3.15625,0.71875 -0.324219,0.07422 -0.625,0.109375 -0.90625,0.109375 -0.273438,0 -0.527344,0.04297 -0.765625,0.125 -1.355469,0.15625 -2.546875,0.355469 -3.578125,0.59375 -1.03125,0.242187 -1.984375,0.480469 -2.859375,0.71875 l -1.4375,0.359375 c -0.554687,0.15625 -0.914063,0.257812 -1.078125,0.296875 -0.15625,0.04297 -0.234375,0.382813 -0.234375,1.015625 -0.15625,0.480469 -0.277344,1.476562 -0.359375,2.984375 -0.15625,1.105469 -0.277344,2.296875 -0.359375,3.578125 -0.07422,1.273438 -0.152344,2.664062 -0.234375,4.171875 -0.15625,2.304687 -0.433594,3.890625 -0.828125,4.765625 -0.480469,0.960938 -1.121094,1.042969 -1.921875,0.25 -0.554688,-0.71875 -0.992188,-0.800781 -1.3125,-0.25 0,0.085938 -0.02344,0.148438 -0.0625,0.1875 -0.03125,0.042969 -0.04687,0.101562 -0.04687,0.171875 -0.08594,0.085937 -0.125,0.125 -0.125,0.125 -0.08594,0 -0.203125,-0.15625 -0.359375,-0.46875 -0.15625,-0.320313 -0.433594,-0.40625 -0.828125,-0.25 -0.71875,0.15625 -1.234375,0.117187 -1.546875,-0.125 -0.242188,-0.238281 -0.402344,-0.515625 -0.484375,-0.828125 -0.08594,-0.320312 -0.125,-1.195312 -0.125,-2.625 0,-1.75 0.03906,-3.398438 0.125,-4.953125 0.08203,-1.550781 0.203125,-3.082031 0.359375,-4.59375 0.15625,-0.71875 0.15625,-1.078125 0,-1.078125 0,-0.226562 -0.953125,-0.02344 -2.859375,0.609375 -1.355469,0.398437 -2.667969,0.792969 -3.9375,1.1875 -1.273437,0.398437 -2.507813,0.792969 -3.703125,1.1875 -0.960938,0.324219 -1.757812,0.546875 -2.390625,0.671875 -0.636719,0.117188 -1.152344,0.210938 -1.546875,0.28125 -1.117188,0 -2.292969,-0.351562 -3.53125,-1.0625 -1.230474,-0.71875 -2.07813,-1.554688 -2.54688,-2.515625 L 5.96875,-20.75 v -1.5625 c 0.070312,-0.550781 0.148438,-1.1875 0.234375,-1.90625 0.082031,-0.71875 0.203125,-1.515625 0.359375,-2.390625 0.238281,-1.820313 0.359375,-2.972656 0.359375,-3.453125 v -0.71875 l 0.46875,-0.359375 c 0.476563,-0.3125 0.757813,-0.585937 0.84375,-0.828125 0.3125,-0.476562 0.75,-0.757812 1.3125,-0.84375 0.476563,-0.15625 1.351563,-0.07031 2.625,0.25 1.351563,0.3125 2.90625,0.46875 4.65625,0.46875 1.425781,0 2.914063,-0.05469 4.46875,-0.171875 1.550781,-0.125 3.039063,-0.304687 4.46875,-0.546875 1.113281,-0.15625 1.75,-0.472656 1.90625,-0.953125 0,-0.15625 0.01953,-0.488281 0.0625,-1 0.03906,-0.519531 0.0625,-1.097656 0.0625,-1.734375 0,-0.632812 0,-1.289062 0,-1.96875 0,-0.675781 0,-1.253906 0,-1.734375 -0.242187,-2.707031 -1.039063,-4.378906 -2.390625,-5.015625 -0.480469,-0.3125 -0.679688,-0.75 -0.59375,-1.3125 0.5625,-2.625 1.796875,-4.210938 3.703125,-4.765625 z m 0,0"
           id="path7" />
      </g>
    </g>
  </g>
  <g
     fill="#38b6ff"
     fill-opacity="1"
     id="g13"
     transform="translate(-631.04419,-370.39655)">
    <g
       transform="translate(697.31635,449.89356)"
       id="g12">
      <g
         id="g11">
        <path
           d="m 28.515625,-51.296875 c 0.707031,-0.238281 1.820313,-0.316406 3.34375,-0.234375 1.425781,0 2.914063,0.21875 4.46875,0.65625 1.550781,0.4375 2.644531,1.414062 3.28125,2.921875 0.238281,0.398437 0.359375,1.011719 0.359375,1.84375 0,0.835937 -0.164062,1.652344 -0.484375,2.453125 -0.15625,0.398438 -0.355469,0.976562 -0.59375,1.734375 -0.242187,0.75 -0.558594,1.683594 -0.953125,2.796875 -0.398438,1.117188 -0.679688,1.96875 -0.84375,2.5625 -0.15625,0.59375 -0.273438,0.96875 -0.34375,1.125 0.07031,0.5625 0.304688,0.765625 0.703125,0.609375 0.08203,0 0.363281,-0.05469 0.84375,-0.171875 0.476563,-0.125 0.992187,-0.242188 1.546875,-0.359375 0.5625,-0.125 1.078125,-0.222656 1.546875,-0.296875 0.476563,-0.08203 0.757813,-0.125 0.84375,-0.125 0.15625,0 0.472656,-0.08203 0.953125,-0.25 0.238281,-0.238281 1.429688,-0.554688 3.578125,-0.953125 0.15625,0 0.488281,-0.03516 1,-0.109375 0.519531,-0.08203 1.21875,-0.203125 2.09375,-0.359375 0.40625,-0.08203 0.960937,-0.144531 1.671875,-0.1875 0.71875,-0.03906 1.554688,-0.0625 2.515625,-0.0625 1.90625,0 2.898437,0.121094 2.984375,0.359375 0.226562,0.242188 0.226562,0.359375 0,0.359375 -0.324219,0 -0.726562,0.203125 -1.203125,0.609375 -0.480469,0.398438 -0.917969,0.855469 -1.3125,1.375 -0.398437,0.511719 -0.777344,1.046875 -1.140625,1.609375 -0.355469,0.554687 -0.570312,0.984375 -0.640625,1.296875 -0.242187,1.273438 -0.5,2.34375 -0.78125,3.21875 -0.28125,0.875 -0.664063,1.59375 -1.140625,2.15625 -0.46875,0.554688 -1.085938,0.992188 -1.84375,1.3125 -0.75,0.3125 -1.804688,0.554688 -3.15625,0.71875 -0.324219,0.07422 -0.625,0.109375 -0.90625,0.109375 -0.273438,0 -0.527344,0.04297 -0.765625,0.125 -1.355469,0.15625 -2.546875,0.355469 -3.578125,0.59375 -1.03125,0.242187 -1.984375,0.480469 -2.859375,0.71875 l -1.4375,0.359375 c -0.554687,0.15625 -0.914063,0.257812 -1.078125,0.296875 -0.15625,0.04297 -0.234375,0.382813 -0.234375,1.015625 -0.15625,0.480469 -0.277344,1.476562 -0.359375,2.984375 -0.15625,1.105469 -0.277344,2.296875 -0.359375,3.578125 -0.07422,1.273438 -0.152344,2.664062 -0.234375,4.171875 -0.15625,2.304687 -0.433594,3.890625 -0.828125,4.765625 -0.480469,0.960938 -1.121094,1.042969 -1.921875,0.25 -0.554688,-0.71875 -0.992188,-0.800781 -1.3125,-0.25 0,0.085938 -0.02344,0.148438 -0.0625,0.1875 -0.03125,0.042969 -0.04687,0.101562 -0.04687,0.171875 -0.08594,0.085937 -0.125,0.125 -0.125,0.125 -0.08594,0 -0.203125,-0.15625 -0.359375,-0.46875 -0.15625,-0.320313 -0.433594,-0.40625 -0.828125,-0.25 -0.71875,0.15625 -1.234375,0.117187 -1.546875,-0.125 -0.242188,-0.238281 -0.402344,-0.515625 -0.484375,-0.828125 -0.08594,-0.320312 -0.125,-1.195312 -0.125,-2.625 0,-1.75 0.03906,-3.398438 0.125,-4.953125 0.08203,-1.550781 0.203125,-3.082031 0.359375,-4.59375 0.15625,-0.71875 0.15625,-1.078125 0,-1.078125 0,-0.226562 -0.953125,-0.02344 -2.859375,0.609375 -1.355469,0.398437 -2.667969,0.792969 -3.9375,1.1875 -1.273437,0.398437 -2.507813,0.792969 -3.703125,1.1875 -0.960938,0.324219 -1.757812,0.546875 -2.390625,0.671875 -0.636719,0.117188 -1.152344,0.210938 -1.546875,0.28125 -1.117188,0 -2.292969,-0.351562 -3.53125,-1.0625 -1.230474,-0.71875 -2.07813,-1.554688 -2.54688,-2.515625 L 5.96875,-20.75 v -1.5625 c 0.070312,-0.550781 0.148438,-1.1875 0.234375,-1.90625 0.082031,-0.71875 0.203125,-1.515625 0.359375,-2.390625 0.238281,-1.820313 0.359375,-2.972656 0.359375,-3.453125 v -0.71875 l 0.46875,-0.359375 c 0.476563,-0.3125 0.757813,-0.585937 0.84375,-0.828125 0.3125,-0.476562 0.75,-0.757812 1.3125,-0.84375 0.476563,-0.15625 1.351563,-0.07031 2.625,0.25 1.351563,0.3125 2.90625,0.46875 4.65625,0.46875 1.425781,0 2.914063,-0.05469 4.46875,-0.171875 1.550781,-0.125 3.039063,-0.304687 4.46875,-0.546875 1.113281,-0.15625 1.75,-0.472656 1.90625,-0.953125 0,-0.15625 0.01953,-0.488281 0.0625,-1 0.03906,-0.519531 0.0625,-1.097656 0.0625,-1.734375 0,-0.632812 0,-1.289062 0,-1.96875 0,-0.675781 0,-1.253906 0,-1.734375 -0.242187,-2.707031 -1.039063,-4.378906 -2.390625,-5.015625 -0.480469,-0.3125 -0.679688,-0.75 -0.59375,-1.3125 0.5625,-2.625 1.796875,-4.210938 3.703125,-4.765625 z m 0,0"
           id="path10" />
      </g>
    </g>
  </g>
  <g
     fill="#000000"
     fill-opacity="0.4"
     id="g16"
     transform="translate(-631.04419,-370.39655)">
    <g
       transform="translate(756.00798,452.74101)"
       id="g15">
      <g
         id="g14">
        <path
           d="m 28.515625,-51.296875 c 0.707031,-0.238281 1.820313,-0.316406 3.34375,-0.234375 1.425781,0 2.914063,0.21875 4.46875,0.65625 1.550781,0.4375 2.644531,1.414062 3.28125,2.921875 0.238281,0.398437 0.359375,1.011719 0.359375,1.84375 0,0.835937 -0.164062,1.652344 -0.484375,2.453125 -0.15625,0.398438 -0.355469,0.976562 -0.59375,1.734375 -0.242187,0.75 -0.558594,1.683594 -0.953125,2.796875 -0.398438,1.117188 -0.679688,1.96875 -0.84375,2.5625 -0.15625,0.59375 -0.273438,0.96875 -0.34375,1.125 0.07031,0.5625 0.304688,0.765625 0.703125,0.609375 0.08203,0 0.363281,-0.05469 0.84375,-0.171875 0.476563,-0.125 0.992187,-0.242188 1.546875,-0.359375 0.5625,-0.125 1.078125,-0.222656 1.546875,-0.296875 0.476563,-0.08203 0.757813,-0.125 0.84375,-0.125 0.15625,0 0.472656,-0.08203 0.953125,-0.25 0.238281,-0.238281 1.429688,-0.554688 3.578125,-0.953125 0.15625,0 0.488281,-0.03516 1,-0.109375 0.519531,-0.08203 1.21875,-0.203125 2.09375,-0.359375 0.40625,-0.08203 0.960937,-0.144531 1.671875,-0.1875 0.71875,-0.03906 1.554688,-0.0625 2.515625,-0.0625 1.90625,0 2.898437,0.121094 2.984375,0.359375 0.226562,0.242188 0.226562,0.359375 0,0.359375 -0.324219,0 -0.726562,0.203125 -1.203125,0.609375 -0.480469,0.398438 -0.917969,0.855469 -1.3125,1.375 -0.398437,0.511719 -0.777344,1.046875 -1.140625,1.609375 -0.355469,0.554687 -0.570312,0.984375 -0.640625,1.296875 -0.242187,1.273438 -0.5,2.34375 -0.78125,3.21875 -0.28125,0.875 -0.664063,1.59375 -1.140625,2.15625 -0.46875,0.554688 -1.085938,0.992188 -1.84375,1.3125 -0.75,0.3125 -1.804688,0.554688 -3.15625,0.71875 -0.324219,0.07422 -0.625,0.109375 -0.90625,0.109375 -0.273438,0 -0.527344,0.04297 -0.765625,0.125 -1.355469,0.15625 -2.546875,0.355469 -3.578125,0.59375 -1.03125,0.242187 -1.984375,0.480469 -2.859375,0.71875 l -1.4375,0.359375 c -0.554687,0.15625 -0.914063,0.257812 -1.078125,0.296875 -0.15625,0.04297 -0.234375,0.382813 -0.234375,1.015625 -0.15625,0.480469 -0.277344,1.476562 -0.359375,2.984375 -0.15625,1.105469 -0.277344,2.296875 -0.359375,3.578125 -0.07422,1.273438 -0.152344,2.664062 -0.234375,4.171875 -0.15625,2.304687 -0.433594,3.890625 -0.828125,4.765625 -0.480469,0.960938 -1.121094,1.042969 -1.921875,0.25 -0.554688,-0.71875 -0.992188,-0.800781 -1.3125,-0.25 0,0.085938 -0.02344,0.148438 -0.0625,0.1875 -0.03125,0.042969 -0.04687,0.101562 -0.04687,0.171875 -0.08594,0.085937 -0.125,0.125 -0.125,0.125 -0.08594,0 -0.203125,-0.15625 -0.359375,-0.46875 -0.15625,-0.320313 -0.433594,-0.40625 -0.828125,-0.25 -0.71875,0.15625 -1.234375,0.117187 -1.546875,-0.125 -0.242188,-0.238281 -0.402344,-0.515625 -0.484375,-0.828125 -0.08594,-0.320312 -0.125,-1.195312 -0.125,-2.625 0,-1.75 0.03906,-3.398438 0.125,-4.953125 0.08203,-1.550781 0.203125,-3.082031 0.359375,-4.59375 0.15625,-0.71875 0.15625,-1.078125 0,-1.078125 0,-0.226562 -0.953125,-0.02344 -2.859375,0.609375 -1.355469,0.398437 -2.667969,0.792969 -3.9375,1.1875 -1.273437,0.398437 -2.507813,0.792969 -3.703125,1.1875 -0.960938,0.324219 -1.757812,0.546875 -2.390625,0.671875 -0.636719,0.117188 -1.152344,0.210938 -1.546875,0.28125 -1.117188,0 -2.292969,-0.351562 -3.53125,-1.0625 -1.230474,-0.71875 -2.07813,-1.554688 -2.54688,-2.515625 L 5.96875,-20.75 v -1.5625 c 0.070312,-0.550781 0.148438,-1.1875 0.234375,-1.90625 0.082031,-0.71875 0.203125,-1.515625 0.359375,-2.390625 0.238281,-1.820313 0.359375,-2.972656 0.359375,-3.453125 v -0.71875 l 0.46875,-0.359375 c 0.476563,-0.3125 0.757813,-0.585937 0.84375,-0.828125 0.3125,-0.476562 0.75,-0.757812 1.3125,-0.84375 0.476563,-0.15625 1.351563,-0.07031 2.625,0.25 1.351563,0.3125 2.90625,0.46875 4.65625,0.46875 1.425781,0 2.914063,-0.05469 4.46875,-0.171875 1.550781,-0.125 3.039063,-0.304687 4.46875,-0.546875 1.113281,-0.15625 1.75,-0.472656 1.90625,-0.953125 0,-0.15625 0.01953,-0.488281 0.0625,-1 0.03906,-0.519531 0.0625,-1.097656 0.0625,-1.734375 0,-0.632812 0,-1.289062 0,-1.96875 0,-0.675781 0,-1.253906 0,-1.734375 -0.242187,-2.707031 -1.039063,-4.378906 -2.390625,-5.015625 -0.480469,-0.3125 -0.679688,-0.75 -0.59375,-1.3125 0.5625,-2.625 1.796875,-4.210938 3.703125,-4.765625 z m 0,0"
           id="path13" />
      </g>
    </g>
  </g>
  <g
     fill="#38b6ff"
     fill-opacity="1"
     id="g19"
     transform="translate(-631.04419,-370.39655)">
    <g
       transform="translate(753.16058,449.89356)"
       id="g18">
      <g
         id="g17">
        <path
           d="m 28.515625,-51.296875 c 0.707031,-0.238281 1.820313,-0.316406 3.34375,-0.234375 1.425781,0 2.914063,0.21875 4.46875,0.65625 1.550781,0.4375 2.644531,1.414062 3.28125,2.921875 0.238281,0.398437 0.359375,1.011719 0.359375,1.84375 0,0.835937 -0.164062,1.652344 -0.484375,2.453125 -0.15625,0.398438 -0.355469,0.976562 -0.59375,1.734375 -0.242187,0.75 -0.558594,1.683594 -0.953125,2.796875 -0.398438,1.117188 -0.679688,1.96875 -0.84375,2.5625 -0.15625,0.59375 -0.273438,0.96875 -0.34375,1.125 0.07031,0.5625 0.304688,0.765625 0.703125,0.609375 0.08203,0 0.363281,-0.05469 0.84375,-0.171875 0.476563,-0.125 0.992187,-0.242188 1.546875,-0.359375 0.5625,-0.125 1.078125,-0.222656 1.546875,-0.296875 0.476563,-0.08203 0.757813,-0.125 0.84375,-0.125 0.15625,0 0.472656,-0.08203 0.953125,-0.25 0.238281,-0.238281 1.429688,-0.554688 3.578125,-0.953125 0.15625,0 0.488281,-0.03516 1,-0.109375 0.519531,-0.08203 1.21875,-0.203125 2.09375,-0.359375 0.40625,-0.08203 0.960937,-0.144531 1.671875,-0.1875 0.71875,-0.03906 1.554688,-0.0625 2.515625,-0.0625 1.90625,0 2.898437,0.121094 2.984375,0.359375 0.226562,0.242188 0.226562,0.359375 0,0.359375 -0.324219,0 -0.726562,0.203125 -1.203125,0.609375 -0.480469,0.398438 -0.917969,0.855469 -1.3125,1.375 -0.398437,0.511719 -0.777344,1.046875 -1.140625,1.609375 -0.355469,0.554687 -0.570312,0.984375 -0.640625,1.296875 -0.242187,1.273438 -0.5,2.34375 -0.78125,3.21875 -0.28125,0.875 -0.664063,1.59375 -1.140625,2.15625 -0.46875,0.554688 -1.085938,0.992188 -1.84375,1.3125 -0.75,0.3125 -1.804688,0.554688 -3.15625,0.71875 -0.324219,0.07422 -0.625,0.109375 -0.90625,0.109375 -0.273438,0 -0.527344,0.04297 -0.765625,0.125 -1.355469,0.15625 -2.546875,0.355469 -3.578125,0.59375 -1.03125,0.242187 -1.984375,0.480469 -2.859375,0.71875 l -1.4375,0.359375 c -0.554687,0.15625 -0.914063,0.257812 -1.078125,0.296875 -0.15625,0.04297 -0.234375,0.382813 -0.234375,1.015625 -0.15625,0.480469 -0.277344,1.476562 -0.359375,2.984375 -0.15625,1.105469 -0.277344,2.296875 -0.359375,3.578125 -0.07422,1.273438 -0.152344,2.664062 -0.234375,4.171875 -0.15625,2.304687 -0.433594,3.890625 -0.828125,4.765625 -0.480469,0.960938 -1.121094,1.042969 -1.921875,0.25 -0.554688,-0.71875 -0.992188,-0.800781 -1.3125,-0.25 0,0.085938 -0.02344,0.148438 -0.0625,0.1875 -0.03125,0.042969 -0.04687,0.101562 -0.04687,0.171875 -0.08594,0.085937 -0.125,0.125 -0.125,0.125 -0.08594,0 -0.203125,-0.15625 -0.359375,-0.46875 -0.15625,-0.320313 -0.433594,-0.40625 -0.828125,-0.25 -0.71875,0.15625 -1.234375,0.117187 -1.546875,-0.125 -0.242188,-0.238281 -0.402344,-0.515625 -0.484375,-0.828125 -0.08594,-0.320312 -0.125,-1.195312 -0.125,-2.625 0,-1.75 0.03906,-3.398438 0.125,-4.953125 0.08203,-1.550781 0.203125,-3.082031 0.359375,-4.59375 0.15625,-0.71875 0.15625,-1.078125 0,-1.078125 0,-0.226562 -0.953125,-0.02344 -2.859375,0.609375 -1.355469,0.398437 -2.667969,0.792969 -3.9375,1.1875 -1.273437,0.398437 -2.507813,0.792969 -3.703125,1.1875 -0.960938,0.324219 -1.757812,0.546875 -2.390625,0.671875 -0.636719,0.117188 -1.152344,0.210938 -1.546875,0.28125 -1.117188,0 -2.292969,-0.351562 -3.53125,-1.0625 -1.230474,-0.71875 -2.07813,-1.554688 -2.54688,-2.515625 L 5.96875,-20.75 v -1.5625 c 0.070312,-0.550781 0.148438,-1.1875 0.234375,-1.90625 0.082031,-0.71875 0.203125,-1.515625 0.359375,-2.390625 0.238281,-1.820313 0.359375,-2.972656 0.359375,-3.453125 v -0.71875 l 0.46875,-0.359375 c 0.476563,-0.3125 0.757813,-0.585937 0.84375,-0.828125 0.3125,-0.476562 0.75,-0.757812 1.3125,-0.84375 0.476563,-0.15625 1.351563,-0.07031 2.625,0.25 1.351563,0.3125 2.90625,0.46875 4.65625,0.46875 1.425781,0 2.914063,-0.05469 4.46875,-0.171875 1.550781,-0.125 3.039063,-0.304687 4.46875,-0.546875 1.113281,-0.15625 1.75,-0.472656 1.90625,-0.953125 0,-0.15625 0.01953,-0.488281 0.0625,-1 0.03906,-0.519531 0.0625,-1.097656 0.0625,-1.734375 0,-0.632812 0,-1.289062 0,-1.96875 0,-0.675781 0,-1.253906 0,-1.734375 -0.242187,-2.707031 -1.039063,-4.378906 -2.390625,-5.015625 -0.480469,-0.3125 -0.679688,-0.75 -0.59375,-1.3125 0.5625,-2.625 1.796875,-4.210938 3.703125,-4.765625 z m 0,0"
           id="path16" />
      </g>
    </g>
  </g>
</svg>
